<?xml version="1.0" encoding="UTF-8"?>
<svg width="20px" height="20px" viewBox="0 0 20 20" version="1.1" xmlns="http://www.w3.org/2000/svg" xmlns:xlink="http://www.w3.org/1999/xlink">
    <!-- Generator: Sketch 63.1 (92452) - https://sketch.com -->
    <title>dropdown-caret</title>
    <desc>Created with Sketch.</desc>
    <g id="dropdown-caret" stroke="none" stroke-width="1" fill="none" fill-rule="evenodd" fill-opacity="0.35">
        <g id="icon/size/medium" fill="#000000">
            <g id="icon/angle-down">
                <g transform="translate(5.000000, 7.500000)" id="Path">
                    <path d="M9.32611569,0.64942778 C8.98695043,0.339079629 8.43918585,0.339079629 8.10002059,0.64942778 L4.97826073,3.4829733 L1.89997941,0.64942778 C1.56081415,0.339079629 1.01304957,0.339079629 0.673884309,0.64942778 C0.50926352,0.799723036 0.416666667,1.00431132 0.416666667,1.21773776 C0.416666667,1.4311642 0.50926352,1.63575248 0.673884309,1.78604773 L4.36086532,5.17989887 C4.52414171,5.33143164 4.74640046,5.41666667 4.97826073,5.41666667 C5.21012099,5.41666667 5.43237974,5.33143164 5.59565613,5.17989887 L9.32611569,1.78604773 C9.49073648,1.63575248 9.58333333,1.4311642 9.58333333,1.21773776 C9.58333333,1.00431132 9.49073648,0.799723036 9.32611569,0.64942778 L9.32611569,0.64942778 Z"></path>
                </g>
            </g>
        </g>
    </g>
</svg>