<?xml version="1.0" encoding="UTF-8"?>
<svg width="56px" height="36px" viewBox="0 0 56 36" version="1.1" xmlns="http://www.w3.org/2000/svg" xmlns:xlink="http://www.w3.org/1999/xlink">
    <!-- Generator: Sketch 64 (93537) - https://sketch.com -->
    <title>logo/color</title>
    <desc>Created with Sketch.</desc>
    <g id="logo/color" stroke="none" stroke-width="1" fill="none" fill-rule="evenodd">
        <path d="M18.0130168,20.650496 C16.9420317,21.0609168 16.1393711,22.3389532 16.1393711,24.2372274 C16.1393711,26.2579891 17.0762697,28.2052685 19.1705136,28.2052685 C20.8054935,28.2052685 21.4300926,26.974441 21.8526155,26.974441 C22.0546917,26.974441 22.1832856,27.139776 22.1832856,27.3234816 C22.1832856,27.8194868 20.9157169,29.5095783 18.4908029,29.5095783 C16.1577417,29.5095783 14.302315,27.8378573 14.302315,25.0822732 C14.302315,23.371974 14.9982164,21.7080682 16.2188423,20.6518564 L18.0130168,20.650496 Z M36.5228334,20.6513475 C37.1920164,21.3659596 37.4948596,22.2772375 37.4948596,22.9512882 C37.4948596,24.0158622 36.9974767,24.2183057 36.1759659,24.2516391 L36.0435853,24.255598 L31.0651634,24.255598 C30.9580017,24.255598 30.8891121,24.29387 30.8691257,24.3810451 L30.8630872,24.4393036 L30.8630872,24.5311564 C30.8630872,26.4600653 31.9653208,28.186898 33.9126003,28.186898 C35.7129152,28.186898 36.4477376,26.9376998 36.8886311,26.9376998 C37.1090778,26.9376998 37.2927834,27.0662938 37.2927834,27.3234816 C37.2927834,27.8378573 35.8966208,29.5095783 33.4533362,29.5095783 C30.6426405,29.5095783 28.98929,27.3051111 28.98929,24.7883442 C28.98929,23.2065679 29.6537906,21.6567387 30.7830781,20.6513293 L32.5438873,20.6509227 C31.6722625,21.0753439 31.1178843,22.0199469 30.95494,23.0247704 L30.9365694,23.2268466 L30.9365694,23.2268466 C30.9365694,23.3003288 30.9600837,23.3267824 31.0259238,23.3344246 L31.0835339,23.3370699 L34.0779353,23.3370699 C35.1434278,23.3370699 35.6210624,23.1166232 35.6210624,22.2715774 C35.6210624,21.6762042 35.2563081,20.9987613 34.5846213,20.6504263 L36.5228334,20.6513475 Z M53.0117841,20.6507257 C52.9107351,20.7253672 52.8026251,20.8155572 52.6917618,20.9305265 C52.2738316,21.3484567 52.0106159,21.8789067 51.7667395,22.5095695 L51.6630104,22.7859531 L49.3115786,29.2891316 C49.2821857,29.3773103 49.2410357,29.4184604 49.1599113,29.4313932 L49.0911319,29.4360961 L48.0072688,29.4360961 C47.9190901,29.4360961 47.8661829,29.4125818 47.8297357,29.3561474 L47.8051927,29.3075022 L45.3251669,22.0143896 C45.3067964,21.9592779 45.2884258,21.9409073 45.2700553,21.9409073 C45.2424994,21.9409073 45.225277,21.9512408 45.210638,21.9796577 L42.4961006,29.2707611 C42.4520112,29.3736362 42.4079219,29.4177255 42.3262096,29.4312463 L42.2572833,29.4360961 L41.1917908,29.4360961 C41.0540116,29.4360961 40.980019,29.4105814 40.9379198,29.3276588 L40.9162324,29.2707611 L38.8771001,22.4369125 C38.6566534,21.70209 38.3994655,21.0591204 38.087166,20.7651914 C38.0438783,20.7219037 37.9974424,20.6842827 37.9494243,20.6507625 L40.6906636,20.6525071 C40.5766991,20.7746211 40.4937095,20.9481208 40.4937095,21.2244554 C40.4937095,21.4655691 40.5499693,21.7770075 40.6747958,22.2326117 L40.7325268,22.4369125 L42.1286894,27.1581466 C42.1470599,27.2132583 42.1654305,27.2499994 42.2021716,27.2499994 C42.2297275,27.2499994 42.2469499,27.2293325 42.2615889,27.1957488 L44.684315,20.6517292 L46.745315,20.6517292 L48.962538,27.1581466 C48.9763159,27.1994803 48.9900938,27.2408141 49.0116218,27.2588976 L49.0360202,27.2683699 C49.0635761,27.2683699 49.0807985,27.2373696 49.0954375,27.1986192 L49.55934,25.8806952 C49.7793605,25.2433493 50.0345142,24.4933346 50.2484772,23.8514456 L50.4884652,23.1052179 C50.7242639,22.3483207 50.8547057,21.8222052 50.8547057,21.4265316 C50.8547057,21.019844 50.7133804,20.798819 50.5405073,20.6504504 L53.0117841,20.6507257 Z M29.384315,20.6517292 L29.3889939,20.7468209 C29.3889939,21.1877143 29.2420294,21.5918667 28.7643948,21.5918667 C28.3235013,21.5918667 28.084684,21.1877143 27.5335672,21.1877143 C27.1845266,21.1877143 26.7987448,21.3530494 26.4864453,21.830684 L26.3906604,21.9816543 C26.0165853,22.6042765 25.7548671,23.4844059 25.7345281,25.7961454 L25.7332523,26.092654 C25.7332523,26.9928115 25.7699934,27.59904 25.953699,27.9664512 C26.2843691,28.6277914 26.8905976,28.5543092 26.8905976,28.9584615 C26.8905976,29.1870729 26.7164175,29.2850493 26.4712751,29.3039994 L26.3762219,29.3075022 L23.3450794,29.3075022 C23.0511504,29.3075022 22.8307037,29.2156494 22.8307037,28.9584615 C22.8307037,28.5726797 23.4920439,28.5910503 23.7859728,27.9297101 C23.9062165,27.6441314 23.9649719,27.1986833 23.9823625,26.5531188 L23.988049,26.092654 L23.988049,22.8043237 C23.988049,22.0143896 23.9145668,21.5734961 23.7492317,21.3346788 C23.458328,20.9144846 22.8688514,20.920823 22.7312777,20.6532502 L25.567315,20.6517292 L25.5679172,21.4816433 C25.5679172,21.5091991 25.5679172,21.536755 25.5834174,21.5488107 L25.6046583,21.5551255 C25.6230289,21.5551255 25.6368068,21.5413476 25.6482884,21.5229771 L25.6781406,21.4632727 C25.8001168,21.2135119 25.9826973,20.9270212 26.2125269,20.6519955 L29.384315,20.6517292 Z M21.8284485,20.6514237 C21.9017324,20.8944057 21.9260977,21.1726514 21.9260977,21.4265316 C21.9260977,22.289948 21.7423921,22.5471358 21.3933515,22.5471358 C20.9708286,22.5471358 20.8789758,22.1062424 20.6034174,21.6469783 C20.4056856,21.3174254 20.0566088,20.8743637 19.515462,20.6503815 L21.8284485,20.6514237 Z" id="Shape" fill="#167767" fill-rule="nonzero"></path>
        <path d="M10.4009449,18.924885 C10.5295388,18.924885 10.6213916,18.8881439 10.6765033,18.7779206 L13.4871991,12.2747421 C13.8546103,11.4296963 14.2955037,10.437686 15.1038084,9.9600514 C15.3058846,9.83145748 15.4528491,9.73960467 15.4528491,9.5375285 C15.4528491,9.29871121 15.2507729,9.20685841 14.8649911,9.20685841 L12.2563715,9.20685841 C11.944072,9.20685841 11.7236252,9.29871121 11.7236252,9.55589906 C11.7236252,10.0335336 12.6237827,9.84982804 12.6237827,10.8602089 C12.6237827,11.3929551 12.3665949,12.1645187 11.8889603,13.3586051 L10.4927977,16.8306411 C10.4744271,16.8857528 10.4560565,16.9041234 10.437686,16.9041234 C10.4193154,16.9041234 10.4009449,16.9041234 10.3642037,16.8122706 L8.5087771,11.7971075 C8.30670093,11.2459907 8.23321869,10.89695 8.23321869,10.6581327 C8.23321869,9.8681986 9.09663505,9.99679252 9.09663505,9.55589906 C9.09663505,9.33545234 8.9313,9.20685841 8.60062991,9.20685841 L5.58785794,9.20685841 C5.16533505,9.20685841 5,9.31708178 5,9.55589906 C5,9.8681986 5.45926402,9.92331028 5.80830467,10.2356098 C6.15734533,10.5662799 6.39616262,11.1541378 6.67172103,11.9257014 L9.17011729,18.7228089 C9.22522897,18.8697734 9.29871121,18.924885 9.4456757,18.924885 L10.4009449,18.924885 Z M19.5171914,18.9983673 C21.960476,18.9983673 23.3566386,17.3266463 23.3566386,16.8122706 C23.3566386,16.5550827 23.172933,16.4264888 22.9524863,16.4264888 C22.5115929,16.4264888 21.7767704,17.6756869 19.9764555,17.6756869 C18.029176,17.6756869 16.9269424,15.9488542 16.9269424,14.0199453 L16.9269424,13.9280925 C16.9269424,13.7994986 17.0004246,13.7443869 17.1290186,13.7443869 L22.1074405,13.7443869 L22.1074405,13.7443869 C23.007598,13.7260164 23.5587148,13.5606813 23.5587148,12.4400771 C23.5587148,11.1541378 22.4564812,9.00478224 19.8111204,9.00478224 C16.9636835,9.00478224 15.0531452,11.5950313 15.0531452,14.2771332 C15.0531452,16.7939 16.7064957,18.9983673 19.5171914,18.9983673 Z M20.1417905,12.8258589 L17.1473891,12.8258589 L17.1473891,12.8258589 C17.0371657,12.8258589 17.0004246,12.8074883 17.0004246,12.7156355 C17.0004246,12.697265 17.0004246,12.6605238 17.0187952,12.5135593 C17.2392419,11.1541378 18.1761405,9.90493972 19.6457854,9.90493972 C20.9500952,9.90493972 21.6849176,10.9153206 21.6849176,11.7603664 C21.6849176,12.6054121 21.207283,12.8258589 20.1417905,12.8258589 Z M27.8435039,18.7962911 C28.1374329,18.7962911 28.3578796,18.7044383 28.3578796,18.4472505 C28.3578796,18.0430981 27.7516511,18.1165804 27.420981,17.4552402 C27.2372754,17.087829 27.2005343,16.4816005 27.2005343,15.581443 C27.2005343,12.8442294 27.5128338,11.9808131 27.9537273,11.3194729 C28.2660268,10.8418383 28.6518086,10.6765033 29.0008493,10.6765033 C29.5519661,10.6765033 29.7907834,11.0806556 30.2316768,11.0806556 C30.7093114,11.0806556 30.8562759,10.6765033 30.8562759,10.2356098 C30.8562759,9.50078738 30.4153824,9.00478224 29.6989306,9.00478224 C28.5232147,9.00478224 27.5312044,10.1621276 27.1454226,10.9520617 C27.1270521,10.9888028 27.1086815,11.0439145 27.0719404,11.0439145 C27.0351993,11.0439145 27.0351993,11.0071734 27.0351993,10.9704322 L27.0351993,9.51915794 C27.0351993,9.18848785 26.8882348,9.00478224 26.6126764,9.00478224 C26.4840824,9.00478224 26.3371179,9.04152336 26.1717829,9.11500561 C25.6390366,9.3538229 25.2716254,9.48241682 24.6653969,9.61101075 C24.2796151,9.68449299 24.1693918,9.81308692 24.1693918,10.0151631 C24.1693918,10.4193154 24.8858436,10.3458332 25.2165137,10.8234678 C25.3818488,11.062285 25.455331,11.5031785 25.455331,12.2931126 L25.455331,15.581443 C25.455331,16.4816005 25.4002193,17.0694584 25.2532549,17.4184991 C24.9593259,18.0798393 24.2979857,18.0614687 24.2979857,18.4472505 C24.2979857,18.7044383 24.5184324,18.7962911 24.8123614,18.7962911 L27.8435039,18.7962911 Z M33.5748194,7.62699019 C33.9973423,7.62699019 34.8791292,6.72683271 34.8791292,6.32268037 C34.8791292,5.90015748 33.9973423,5 33.5748194,5 C33.1522965,5 32.2705096,5.90015748 32.2705096,6.32268037 C32.2705096,6.72683271 33.1522965,7.62699019 33.5748194,7.62699019 Z M35.136317,18.7962911 C35.4118754,18.7962911 35.6506927,18.7044383 35.6506927,18.4472505 C35.6506927,18.0614687 35.0444642,18.0982098 34.7137941,17.4552402 C34.5300885,17.087829 34.4933474,16.499971 34.4933474,15.581443 L34.4933474,9.48241682 C34.4933474,9.15174673 34.3280124,9.00478224 34.1075656,9.00478224 C33.9973423,9.00478224 33.8871189,9.04152336 33.758525,9.09663505 C33.2074082,9.33545234 32.6930325,9.48241682 32.0133217,9.62938131 C31.5724282,9.72123411 31.498946,9.8681986 31.498946,10.0519042 C31.498946,10.2356098 31.6826516,10.3274626 31.9398395,10.4193154 C32.2153979,10.5111682 32.4358446,10.6213916 32.546068,10.8050972 C32.7144648,11.0745321 32.7284978,11.4520216 32.7296673,12.1215158 L32.7297736,15.581443 C32.7297736,16.4816005 32.6930325,17.087829 32.5093268,17.4552402 C32.2153979,18.0430981 31.5724282,18.0614687 31.5724282,18.4472505 C31.5724282,18.7044383 31.792875,18.7962911 32.0684334,18.7962911 L35.136317,18.7962911 Z" id="veri" fill="#000000" fill-rule="nonzero"></path>
    </g>
</svg>