<?xml version="1.0" encoding="UTF-8"?>
<svg width="24px" height="24px" viewBox="0 0 24 24" version="1.1" xmlns="http://www.w3.org/2000/svg" xmlns:xlink="http://www.w3.org/1999/xlink">
    <!-- Generator: Sketch 64 (93537) - https://sketch.com -->
    <title>icon/custom/arrow-long-left</title>
    <desc>Created with Sketch.</desc>
    <g id="icon/custom/arrow-long-left" stroke="none" stroke-width="1" fill="none" fill-rule="evenodd">
        <path d="M20.9995843,10.9999708 L5.40642902,10.9999708 L8.70780088,7.7126801 C9.10008606,7.32088084 9.10008606,6.68564872 8.70780088,6.29384945 C8.31551569,5.90205018 7.67949575,5.90205018 7.28721056,6.29384945 L2.285132,11.289732 C2.19405352,11.3847574 2.12265887,11.49681 2.0750447,11.6194603 C1.9749851,11.8627211 1.9749851,12.1355736 2.0750447,12.3788344 C2.12265887,12.5014847 2.19405352,12.6135373 2.285132,12.7085627 L7.28721056,17.7044453 C7.47505522,17.893602 7.73075734,18 7.99750572,18 C8.2642541,18 8.51995622,17.893602 8.70780088,17.7044453 C8.89719223,17.5168333 9.00372217,17.2614479 9.00372217,16.9950299 C9.00372217,16.728612 8.89719223,16.4732266 8.70780088,16.2856146 L5.40642902,12.9983239 L20.9995843,12.9983239 C21.5520986,12.9983239 22,12.5509773 22,11.9991474 C22,11.4473174 21.5520986,10.9999708 20.9995843,10.9999708 Z" id="Path" fill="#000000"></path>
    </g>
</svg>