<?xml version="1.0" encoding="UTF-8"?>
<svg width="24px" height="24px" viewBox="0 0 24 24" version="1.1" xmlns="http://www.w3.org/2000/svg" xmlns:xlink="http://www.w3.org/1999/xlink">
    <!-- Generator: Sketch 64 (93537) - https://sketch.com -->
    <title>icon/custom/arrow-long-right</title>
    <desc>Created with Sketch.</desc>
    <g id="icon/custom/arrow-long-right" stroke="none" stroke-width="1" fill="none" fill-rule="evenodd">
        <path d="M3.00041571,10.9999708 L18.593571,10.9999708 L15.2921991,7.7126801 C14.8999139,7.32088084 14.8999139,6.68564872 15.2921991,6.29384945 C15.6844843,5.90205018 16.3205043,5.90205018 16.7127894,6.29384945 L21.714868,11.289732 C21.8059465,11.3847574 21.8773411,11.49681 21.9249553,11.6194603 C22.0250149,11.8627211 22.0250149,12.1355736 21.9249553,12.3788344 C21.8773411,12.5014847 21.8059465,12.6135373 21.714868,12.7085627 L16.7127894,17.7044453 C16.5249448,17.893602 16.2692427,18 16.0024943,18 C15.7357459,18 15.4800438,17.893602 15.2921991,17.7044453 C15.1028078,17.5168333 14.9962778,17.2614479 14.9962778,16.9950299 C14.9962778,16.728612 15.1028078,16.4732266 15.2921991,16.2856146 L18.593571,12.9983239 L3.00041571,12.9983239 C2.44790137,12.9983239 2,12.5509773 2,11.9991474 C2,11.4473174 2.44790137,10.9999708 3.00041571,10.9999708 Z" id="Path" fill="#000000"></path>
    </g>
</svg>