<?xml version="1.0" encoding="UTF-8"?>
<svg width="24px" height="24px" viewBox="0 0 24 24" version="1.1" xmlns="http://www.w3.org/2000/svg" xmlns:xlink="http://www.w3.org/1999/xlink">
    <!-- Generator: Sketch 64 (93537) - https://sketch.com -->
    <title>icon/custom/check-double</title>
    <desc>Created with Sketch.</desc>
    <g id="icon/custom/check-double" stroke="none" stroke-width="1" fill="none" fill-rule="evenodd">
        <path d="M4.61988597,11.5092489 L4.70710678,11.5869553 L9.23259018,16.1124387 L8.5254834,16.8195454 C8.1628537,17.1821751 7.59100831,17.2080773 7.19849065,16.8972518 L7.11126984,16.8195454 L3.29289322,13.0011688 C2.90236893,12.6106445 2.90236893,11.9774796 3.29289322,11.5869553 C3.65552292,11.2243256 4.22736831,11.1984234 4.61988597,11.5092489 Z M21.3907012,7.12518685 L21.4779221,7.20289322 C21.8405518,7.56552292 21.8664539,8.13736831 21.5556284,8.52988597 L21.4779221,8.61710678 L13.2754834,16.8195454 C12.9128537,17.1821751 12.3410083,17.2080773 11.9484907,16.8972518 L11.8612698,16.8195454 L8.04289322,13.0011688 C7.65236893,12.6106445 7.65236893,11.9774796 8.04289322,11.5869553 C8.40552292,11.2243256 8.97736831,11.1984234 9.36988597,11.5092489 L9.45710678,11.5869553 L10.193,12.323 L15.3137085,7.20289322 C15.6763382,6.84026352 16.2481836,6.8143614 16.6407012,7.12518685 L16.7279221,7.20289322 C17.0905518,7.56552292 17.1164539,8.13736831 16.8056284,8.52988597 L16.7279221,8.61710678 L11.607,13.737 L12.5683766,14.6982251 L20.0637085,7.20289322 C20.4263382,6.84026352 20.9981836,6.8143614 21.3907012,7.12518685 Z" id="Combined-Shape" fill="#000000"></path>
    </g>
</svg>