<?xml version="1.0" encoding="UTF-8"?>
<svg width="24px" height="24px" viewBox="0 0 24 24" version="1.1" xmlns="http://www.w3.org/2000/svg" xmlns:xlink="http://www.w3.org/1999/xlink">
    <!-- Generator: Sketch 64 (93537) - https://sketch.com -->
    <title>icon/custom/question</title>
    <desc>Created with Sketch.</desc>
    <g id="icon/custom/question" stroke="none" stroke-width="1" fill="none" fill-rule="evenodd">
        <path d="M18,1 C19.6568542,1 21,2.34314575 21,4 L21,4 L21,16 C21,17.6568542 19.6568542,19 18,19 L18,19 L17,19 L17,20 C17,21.5976809 15.75108,22.9036609 14.1762728,22.9949073 L14,23 L6,23 C4.40231912,23 3.09633912,21.75108 3.00509269,20.1762728 L3,20 L3,8 C3,6.40231912 4.24891996,5.09633912 5.82372721,5.00509269 L6,5 L6.999,5 L7,4 C7,2.40231912 8.24891996,1.09633912 9.82372721,1.00509269 L10,1 Z M6.999,7 L6,7 C5.48716416,7 5.06449284,7.38604019 5.00672773,7.88337887 L5,8 L5,20 C5,20.5128358 5.38604019,20.9355072 5.88337887,20.9932723 L6,21 L14,21 C14.5128358,21 14.9355072,20.6139598 14.9932723,20.1166211 L15,20 L15,19 L10,19 C8.40231912,19 7.09633912,17.75108 7.00509269,16.1762728 L7,16 L6.999,7 Z M18,3 L10,3 C9.44771525,3 9,3.44771525 9,4 L9,4 L9,16 C9,16.5522847 9.44771525,17 10,17 L10,17 L18,17 C18.5522847,17 19,16.5522847 19,16 L19,16 L19,4 C19,3.44771525 18.5522847,3 18,3 L18,3 Z M14.0004438,12.5 C14.2668317,12.5 14.5221882,12.6064071 14.7097789,12.7955802 C14.8943501,12.9817034 14.9984038,13.2329175 14.9995073,13.4950639 C15.0040862,13.6294648 14.9766932,13.7630323 14.9195823,13.8847763 C14.8708848,14.0038814 14.7996457,14.1124579 14.7097789,14.2045403 C14.6129507,14.2957498 14.5015062,14.3700609 14.380088,14.424378 C13.940105,14.6059264 13.4331647,14.4518242 13.1685933,14.056102 C12.904022,13.6603798 12.9552876,13.1329245 13.2911087,12.7955802 C13.4786995,12.6064071 13.734056,12.5 14.0004438,12.5 Z M11.140985,7.00028879 C11.9026913,5.73974974 13.5015774,5.18354347 14.9332277,5.68107708 C16.364878,6.17861068 17.2161329,7.586301 16.9522366,9.01984124 C16.6883403,10.4533815 15.3854506,11.4990664 13.8620388,11.5 C13.2840402,11.5 12.8154797,11.0523135 12.8154797,10.5000642 C12.8154797,9.94781487 13.2840402,9.50012835 13.8620388,9.50012835 C14.4400375,9.50012835 14.908598,9.05244184 14.908598,8.50019253 C14.908598,7.94794322 14.4400375,7.50025671 13.8620388,7.50025671 C13.486654,7.49883279 13.1392233,7.68961036 12.9515323,8.00022462 C12.6641383,8.47633048 12.0284454,8.64157176 11.5282119,8.37020087 C11.2859965,8.23825812 11.1088979,8.01942441 11.0362018,7.76224355 C10.9635056,7.50506269 11.0012222,7.23079774 11.140985,7.00028879 Z" id="Combined-Shape" fill="#000000"></path>
    </g>
</svg>