<?xml version="1.0" encoding="UTF-8"?>
<svg width="24px" height="24px" viewBox="0 0 24 24" version="1.1" xmlns="http://www.w3.org/2000/svg" xmlns:xlink="http://www.w3.org/1999/xlink">
    <!-- Generator: Sketch 64 (93537) - https://sketch.com -->
    <title>icon/custom/question-share</title>
    <desc>Created with Sketch.</desc>
    <g id="icon/custom/question-share" stroke="none" stroke-width="1" fill="none" fill-rule="evenodd">
        <g id="Group" transform="translate(4.000000, 1.000000)" fill="#000000">
            <path d="M15.48,13 C16.5845695,13 17.48,13.8954305 17.48,15 C17.48,16.1045695 16.5845695,17 15.48,17 C15.1857576,16.994431 14.8971161,16.9240185 14.6343745,16.7946493 L14.48,16.71 L12.57,17.59 L14.32,18.39 C15.0194893,17.874495 15.9718054,17.8696224 16.6765331,18.3779427 C17.3812609,18.8862629 17.6771428,19.7914611 17.4087013,20.617881 C17.1402599,21.4443008 16.3689203,22.0028393 15.5,22.0000108 C14.5498714,21.9985619 13.7399377,21.3306711 13.5464572,20.4148591 L13.52,20.26 L11.43,19.26 C11.1440966,19.4143537 10.8248925,19.496729 10.5,19.5 C9.3954305,19.5 8.5,18.6045695 8.5,17.5 C8.5,16.3954305 9.3954305,15.5 10.5,15.5 C10.8328301,15.5135307 11.1561017,15.6099248 11.4409257,15.7792851 L11.58,15.87 L13.48,15 C13.48,13.8954305 14.3754305,13 15.48,13 Z M13,-1.42108547e-13 C14.5976809,-1.42108547e-13 15.9036609,1.24891996 15.9949073,2.82372721 L16,3 L16,10 C16,10.5522847 15.5522847,11 15,11 C14.4871642,11 14.0644928,10.6139598 14.0067277,10.1166211 L14,10 L14,3 C14,2.48716416 13.6139598,2.06449284 13.1166211,2.00672773 L13,2 L3,2 C2.48716416,2 2.06449284,2.38604019 2.00672773,2.88337887 L2,3 L2,17 C2,17.5128358 2.38604019,17.9355072 2.88337887,17.9932723 L3,18 L5.5,18 C6.05228475,18 6.5,18.4477153 6.5,19 C6.5,19.5128358 6.11395981,19.9355072 5.61662113,19.9932723 L5.5,20 L3,20 C1.40231912,20 0.0963391206,18.75108 0.00509269341,17.1762728 L0,17 L0,3 C0,1.40231912 1.24891996,0.0963391206 2.82372721,0.00509269341 L3,-1.42108547e-13 L13,-1.42108547e-13 Z M8.00044383,11 C8.26683166,11 8.52218817,11.1064071 8.70977893,11.2955802 C8.89435008,11.4817034 8.99840376,11.7329175 8.99950735,11.9950639 C9.0040862,12.1294648 8.97669319,12.2630323 8.91958227,12.3847763 C8.87088478,12.5038814 8.79964566,12.6124579 8.70977893,12.7045403 C8.61295069,12.7957498 8.50150622,12.8700609 8.38008797,12.924378 C7.94010498,13.1059264 7.43316469,12.9518242 7.16859334,12.556102 C6.904022,12.1603798 6.95528759,11.6329245 7.29110873,11.2955802 C7.47869949,11.1064071 7.73405599,11 8.00044383,11 Z M5.140985,5.50028879 C5.90269134,4.23974974 7.50157736,3.68354347 8.93322771,4.18107708 C10.364878,4.67861068 11.2161329,6.086301 10.9522366,7.51984124 C10.6883403,8.95338148 9.38545055,9.99906644 7.86203882,10 C7.28404015,10 6.81547966,9.55231348 6.81547966,9.00006418 C6.81547966,8.44781487 7.28404015,8.00012835 7.86203882,8.00012835 C8.44003748,8.00012835 8.90859798,7.55244184 8.90859798,7.00019253 C8.90859798,6.44794322 8.44003748,6.00025671 7.86203882,6.00025671 C7.486654,5.99883279 7.13922328,6.18961036 6.95153235,6.50022462 C6.66413833,6.97633048 6.02844538,7.14157176 5.52821189,6.87020087 C5.28599655,6.73825812 5.10889793,6.51942441 5.03620177,6.26224355 C4.96350561,6.00506269 5.00122225,5.73079774 5.140985,5.50028879 Z" id="Combined-Shape"></path>
        </g>
    </g>
</svg>