<?xml version="1.0" encoding="UTF-8"?>
<svg width="24px" height="24px" viewBox="0 0 24 24" version="1.1" xmlns="http://www.w3.org/2000/svg" xmlns:xlink="http://www.w3.org/1999/xlink">
    <!-- Generator: Sketch 64 (93537) - https://sketch.com -->
    <title>icon/custom/slide</title>
    <desc>Created with Sketch.</desc>
    <g id="icon/custom/slide" stroke="none" stroke-width="1" fill="none" fill-rule="evenodd">
        <path d="M18,1 C19.6568542,1 21,2.34314575 21,4 L21,4 L21,16 C21,17.6568542 19.6568542,19 18,19 L18,19 L17,19 L17,20 C17,21.5976809 15.75108,22.9036609 14.1762728,22.9949073 L14,23 L6,23 C4.40231912,23 3.09633912,21.75108 3.00509269,20.1762728 L3,20 L3,8 C3,6.40231912 4.24891996,5.09633912 5.82372721,5.00509269 L6,5 L6.999,5 L7,4 C7,2.40231912 8.24891996,1.09633912 9.82372721,1.00509269 L10,1 Z M6.999,7 L6,7 C5.48716416,7 5.06449284,7.38604019 5.00672773,7.88337887 L5,8 L5,20 C5,20.5128358 5.38604019,20.9355072 5.88337887,20.9932723 L6,21 L14,21 C14.5128358,21 14.9355072,20.6139598 14.9932723,20.1166211 L15,20 L15,19 L10,19 C8.40231912,19 7.09633912,17.75108 7.00509269,16.1762728 L7,16 L6.999,7 Z M18,3 L10,3 C9.44771525,3 9,3.44771525 9,4 L9,4 L9,16 C9,16.5522847 9.44771525,17 10,17 L10,17 L18,17 C18.5522847,17 19,16.5522847 19,16 L19,16 L19,4 C19,3.44771525 18.5522847,3 18,3 L18,3 Z M14,13 C14.5522847,13 15,13.4477153 15,14 C15,14.5522847 14.5522847,15 14,15 L12,15 C11.4477153,15 11,14.5522847 11,14 C11,13.4477153 11.4477153,13 12,13 L14,13 Z M16,9 C16.5522847,9 17,9.44771525 17,10 C17,10.5522847 16.5522847,11 16,11 L12,11 C11.4477153,11 11,10.5522847 11,10 C11,9.44771525 11.4477153,9 12,9 L16,9 Z M16,5 C16.5522847,5 17,5.44771525 17,6 C17,6.55228475 16.5522847,7 16,7 L12,7 C11.4477153,7 11,6.55228475 11,6 C11,5.44771525 11.4477153,5 12,5 L16,5 Z" id="Combined-Shape" fill="#000000"></path>
    </g>
</svg>