<?xml version="1.0" encoding="UTF-8"?>
<svg width="24px" height="24px" viewBox="0 0 24 24" version="1.1" xmlns="http://www.w3.org/2000/svg" xmlns:xlink="http://www.w3.org/1999/xlink">
    <!-- Generator: Sketch 64 (93537) - https://sketch.com -->
    <title>icon/custom/slide-share</title>
    <desc>Created with Sketch.</desc>
    <g id="icon/custom/slide-share" stroke="none" stroke-width="1" fill="none" fill-rule="evenodd">
        <g id="Group" transform="translate(4.000000, 1.000000)" fill="#000000">
            <path d="M15.48,13 C16.5845695,13 17.48,13.8954305 17.48,15 C17.48,16.1045695 16.5845695,17 15.48,17 C15.1269091,16.9933172 14.7818835,16.8932598 14.48,16.71 L14.48,16.71 L12.57,17.59 L14.32,18.39 C15.0194893,17.874495 15.9718054,17.8696224 16.6765331,18.3779427 C17.3812609,18.8862629 17.6771428,19.7914611 17.4087013,20.617881 C17.1402599,21.4443008 16.3689203,22.0028393 15.5,22.0000108 C14.4970864,21.9984814 13.6503778,21.2544041 13.52,20.26 L13.52,20.26 L11.43,19.26 C11.1440966,19.4143537 10.8248925,19.496729 10.5,19.5 C9.3954305,19.5 8.5,18.6045695 8.5,17.5 C8.5,16.3954305 9.3954305,15.5 10.5,15.5 C10.8883018,15.5157859 11.2635934,15.644358 11.58,15.87 L11.58,15.87 L13.48,15 C13.48,13.8954305 14.3754305,13 15.48,13 Z M13,0 C14.5976809,0 15.9036609,1.24891996 15.9949073,2.82372721 L16,3 L16,10 C16,10.5522847 15.5522847,11 15,11 C14.4871642,11 14.0644928,10.6139598 14.0067277,10.1166211 L14,10 L14,3 C14,2.48716416 13.6139598,2.06449284 13.1166211,2.00672773 L13,2 L3,2 C2.48716416,2 2.06449284,2.38604019 2.00672773,2.88337887 L2,3 L2,17 C2,17.5128358 2.38604019,17.9355072 2.88337887,17.9932723 L3,18 L5.5,18 C6.05228475,18 6.5,18.4477153 6.5,19 C6.5,19.5128358 6.11395981,19.9355072 5.61662113,19.9932723 L5.5,20 L3,20 C1.40231912,20 0.0963391206,18.75108 0.00509269341,17.1762728 L0,17 L0,3 C0,1.40231912 1.24891996,0.0963391206 2.82372721,0.00509269341 L3,0 L13,0 Z M8,12 C8.55228475,12 9,12.4477153 9,13 C9,13.5522847 8.55228475,14 8,14 L5,14 C4.44771525,14 4,13.5522847 4,13 C4,12.4477153 4.44771525,12 5,12 L8,12 Z M11,8 C11.5522847,8 12,8.44771525 12,9 C12,9.55228475 11.5522847,10 11,10 L5,10 C4.44771525,10 4,9.55228475 4,9 C4,8.44771525 4.44771525,8 5,8 L11,8 Z M11,4 C11.5522847,4 12,4.44771525 12,5 C12,5.55228475 11.5522847,6 11,6 L5,6 C4.44771525,6 4,5.55228475 4,5 C4,4.44771525 4.44771525,4 5,4 L11,4 Z" id="Combined-Shape"></path>
        </g>
    </g>
</svg>